<svg width="416" height="416" viewBox="0 0 416 416" fill="none" xmlns="http://www.w3.org/2000/svg">
<path fill-rule="evenodd" clip-rule="evenodd" d="M187.397 0.588495C145.911 5.24249 108.761 20.6235 76.8126 46.3745C68.0066 53.4715 50.1876 71.6335 43.7536 80.0685C-5.18736 144.229 -13.6614 226.911 21.3146 299.014C31.7586 320.547 45.7386 339.454 64.6656 357.647C121.279 412.064 202.732 429.607 277.54 403.496C297.412 396.56 321.277 383.082 338.897 368.845C347.797 361.653 365.602 343.508 372.04 335.068C392.821 307.824 406.24 277.806 412.381 244.824C423.379 185.753 407.532 124.04 369.174 76.5685C361.218 66.7225 343.48 49.5645 333.21 41.7805C305.926 21.0995 273.334 7.32349 239.079 1.99249C227.258 0.152494 198.296 -0.634505 187.397 0.588495ZM240.897 34.7125C299.427 45.9495 349.063 86.5895 370.793 141.068C380.309 164.923 383.303 180.841 383.303 207.568C383.303 234.655 380.261 250.559 370.427 274.878C353.318 317.188 317.517 352.989 275.207 370.098C250.888 379.932 234.984 382.974 207.897 382.974C193.412 382.974 185.825 382.508 178.397 381.161C141.754 374.518 110.544 358.453 84.4826 332.82C31.1436 280.355 16.9866 200.877 48.7586 132.266C52.6536 123.855 63.2036 106.115 64.9536 105.033C65.4926 104.7 93.2946 115.943 126.736 130.018L187.538 155.606L191.695 154.139C193.982 153.332 198.563 152.367 201.875 151.992L207.897 151.311V91.2975V31.2835L219.147 31.9905C225.335 32.3785 235.122 33.6035 240.897 34.7125ZM78.4796 144.404L74.9506 151.41L79.1736 153.871C81.4966 155.225 102.972 167.236 126.897 180.562C150.822 193.887 171.594 205.489 173.058 206.342C175.014 207.483 175.881 208.979 176.333 211.989C177.234 218.002 181.142 225.747 185.446 230.05C197.558 242.162 218.213 242.185 230.297 230.101C232.347 228.051 235.233 223.877 236.711 220.826L239.397 215.279L263.94 203.674C277.438 197.29 294.416 189.276 301.669 185.863L314.855 179.658L311.715 170.863C309.987 166.026 308.267 161.711 307.892 161.275C307.518 160.839 289.122 165.193 267.014 170.951L226.816 181.421L221.107 178.751C212.87 174.899 202.832 174.98 194.151 178.968L187.905 181.839L136.151 160.076C107.686 148.106 83.8596 138.107 83.2026 137.855C82.5086 137.589 80.5286 140.335 78.4796 144.404Z" fill="#1EA69A"/>
</svg>