<svg width="511" height="512" viewBox="0 0 511 512" fill="none" xmlns="http://www.w3.org/2000/svg">
<path fill-rule="evenodd" clip-rule="evenodd" d="M162.137 1.13554C150.31 3.86454 142.722 7.60954 133.68 15.1805C128.605 19.4315 121.049 28.5725 118.234 33.8695L116.33 37.4505L112.013 34.5365C95.091 23.1165 62.564 13.2295 33.358 10.6285C18.114 9.27054 14.612 9.77754 11.197 13.8365C6.72896 19.1465 7.55296 22.2185 16.304 32.8825C20.52 38.0215 27.084 46.9505 30.889 52.7255C37.955 63.4485 51.14 89.2255 54.162 98.2255L55.842 103.226L47.918 111.226C43.451 115.737 38.417 122.061 36.378 125.726C28.887 139.184 25.297 159.256 27.541 175.124L28.658 183.023L23.371 188.624C13.02 199.591 6.76696 210.109 2.48196 223.761C-0.574036 233.499 -0.860036 253.579 1.91396 263.726C5.95996 278.53 15.091 292.954 26.016 301.801C36.538 310.321 52.214 317.34 65.003 319.258C69.581 319.945 69.827 320.16 72.82 326.097C77.401 335.183 82.684 342.527 89.268 348.964C102.778 362.174 117.182 368.304 136.747 369.172C148.161 369.679 154.445 371.818 165.344 378.905C196.034 398.862 218.537 442.361 222.69 489.758C224.375 508.991 226.83 512.298 238.637 511.236C251.087 510.116 275.103 504.624 291.523 499.141C327.974 486.972 358.015 469.123 382.99 444.797C401.603 426.668 413.865 409.732 425.123 386.602C434.594 367.144 439.415 350.792 451.177 298.226C474.117 195.714 481.42 175.38 502.768 154.599C511.163 146.426 512.12 144.075 509.442 138.198C507.271 133.432 503.561 132.393 487.022 131.921C459.187 131.127 442.727 136.737 417 155.788L407.863 162.554L404.741 159.333L401.619 156.112L402.674 145.836C404.346 129.535 401.517 111.4 395.403 99.2255C384.397 77.3145 361.356 62.2135 337.847 61.5055L330.885 61.2955L329.214 53.5175C324.153 29.9675 306.377 10.5075 283.215 3.16154C264.09 -2.90346 241.2 -0.125463 222.834 10.4905L218.531 12.9775L208.834 8.43354C203.501 5.93354 196.437 3.15854 193.137 2.26554C184.698 -0.017463 169.529 -0.570463 162.137 1.13554ZM194.637 24.2685C198.762 25.7535 205.088 28.7145 208.695 30.8475C212.302 32.9805 216.189 34.7255 217.334 34.7255C218.478 34.7255 224.302 32.2555 230.275 29.2365C236.249 26.2175 243.837 23.0545 247.137 22.2085C255.709 20.0085 269.699 20.1775 277.4 22.5745C294.758 27.9765 307.271 42.7895 310.128 61.3165L310.759 65.4075L305.948 67.1895C303.302 68.1695 298.786 70.2165 295.913 71.7385L290.688 74.5055L282.913 70.6825C258.321 58.5935 233.86 58.4385 214.137 70.2465C207.603 74.1595 196.732 84.2915 193.489 89.4935C191.459 92.7505 191.429 92.7595 185.281 92.1305C173.85 90.9585 160.571 93.9065 145.367 100.991C136.664 105.045 136.569 105.064 133.128 103.423C129.901 101.884 129.741 101.592 130.824 99.2155C131.722 97.2435 131.678 94.7885 130.632 88.4435C126.603 64.0105 131.485 44.8105 144.893 32.3525C157.972 20.2005 175.45 17.3605 194.637 24.2685ZM52.777 34.2935C63.801 36.3605 75.626 39.8045 84.501 43.5335C92.172 46.7565 105.514 54.6675 107.68 57.2765C108.582 58.3635 109.034 62.7735 109.144 71.5375C109.232 78.5165 109.646 85.8745 110.065 87.8895C111.141 93.0615 109.306 93.8345 99.121 92.4975C92.974 91.6905 89.412 91.7605 83.637 92.8045C79.512 93.5505 75.752 94.1755 75.282 94.1925C74.812 94.2105 72.045 88.7215 69.134 81.9945C63.332 68.5875 55.34 53.7475 47.042 40.9755C43.774 35.9455 42.215 32.7255 43.049 32.7255C43.801 32.7255 48.178 33.4305 52.777 34.2935ZM260.227 83.7305C264.578 84.8335 272.637 87.9865 278.137 90.7375C283.637 93.4885 289.428 95.7365 291.006 95.7325C292.584 95.7285 296.517 94.1205 299.746 92.1595C313.653 83.7115 332.277 79.8015 344.729 82.7165C360.97 86.5185 374.091 98.3645 379.717 114.307C382.492 122.167 383.35 138.78 381.647 151.649C380.741 158.497 380.671 161.917 381.409 163.286C381.983 164.353 385.757 168.666 389.795 172.871C406.027 189.775 412.096 207.576 408.255 227.024C403.345 251.889 385.598 266.849 357.673 269.664C353.274 270.108 348.615 271.166 347.318 272.016C346.021 272.866 342.868 277.776 340.311 282.927C328.68 306.364 312.594 317.726 291.045 317.726C281.389 317.726 272.941 315.413 265.757 310.803C259.929 307.063 250.637 297.499 250.637 295.24C250.637 294.357 249.501 292.5 248.113 291.112C246.726 289.724 243.78 284.987 241.567 280.587C237.262 272.024 234.31 269.726 227.617 269.726C222.289 269.726 210.392 266.635 203.85 263.552C190.381 257.203 179.41 243.218 175.223 227.058C172.907 218.12 173.11 204.679 175.637 199.726C176.737 197.57 177.637 194.765 177.637 193.493C177.637 189.261 184.99 178.444 193.767 169.762C198.514 165.067 202.698 160.239 203.067 159.033C203.435 157.827 203.038 153.165 202.186 148.672C198.532 129.407 202.061 110.909 211.736 98.6215C216.291 92.8365 225.348 86.4775 232.507 84.0375C240.889 81.1795 249.777 81.0815 260.227 83.7305ZM113.47 116.55C118.054 118.254 124.742 121.291 128.334 123.299C136.028 127.602 138.685 127.524 146.414 122.768C154.239 117.953 167.113 113.627 175.533 112.982L182.93 112.415L182.25 115.321C181.004 120.648 180.444 141.15 181.387 146.921L182.317 152.616L177.401 157.421C174.697 160.064 170.034 165.891 167.038 170.371L161.592 178.517L156.625 176.629C140.17 170.377 120.537 175.008 107.211 188.285C99.78 195.69 95.172 204.422 92.901 215.407C91.445 222.448 91.378 224.744 92.418 231.88C95.289 251.576 108.97 268.305 126.728 273.831C134.635 276.292 148.178 276.338 155.15 273.927C159.583 272.394 165.767 269.072 170.811 265.513C172.21 264.526 173.199 264.988 176.811 268.313C182.196 273.27 188.58 277.671 195.33 281.079C201.073 283.979 216.526 288.726 220.226 288.726C223.338 288.726 226.702 293.439 224.558 294.796C223.776 295.291 222 295.702 220.61 295.711C219.219 295.719 217.108 296.408 215.918 297.242C214.728 298.075 209.405 299.41 204.088 300.208C198.772 301.006 193.756 302.212 192.941 302.888C192.127 303.564 189.431 308.158 186.95 313.097C178.92 329.086 170.78 338.069 159.118 343.81C154.12 346.271 150.846 347.056 142.267 347.851C130.135 348.975 123.144 347.76 114.42 343.012C104.533 337.63 93.407 324.307 87.335 310.579C84.007 303.053 81.312 301.169 72.733 300.372C57.648 298.97 42.085 291.74 34.12 282.436C29.051 276.513 26.107 271.136 22.994 262.116C20.731 255.556 20.262 252.456 20.213 243.726C20.113 225.981 25.342 214.916 41.209 199.297L49.917 190.725L49.221 184.976C47.109 167.509 46.892 163.558 47.667 156.623C49.719 138.244 57.954 125.555 73.137 117.377C80.807 113.246 83.311 112.749 94.637 113.115C103.388 113.397 106.525 113.969 113.47 116.55ZM285.637 143.845C277.323 145.184 266.331 151.03 259.779 157.597C233.126 184.312 243.115 230.116 278.388 242.922C286.42 245.838 300.854 245.838 308.886 242.922C339.016 231.983 351.656 195.324 335.061 167.007C328.375 155.597 313.905 145.824 300.637 143.755C293.347 142.618 293.257 142.619 285.637 143.845ZM474.249 158.976C457.148 183.715 449.859 207.796 424.08 324.726C415.979 361.474 404.365 387.919 385.998 411.441C366.347 436.607 336.634 458.858 305.024 472.079C297.413 475.262 275.526 481.948 274.868 481.29C274.6 481.023 276.444 478.51 278.965 475.706C302.812 449.183 322.029 409.087 330.483 368.217C333.078 355.675 335.637 336.31 335.637 329.221C335.637 323.994 335.845 323.585 342.099 316.541C345.653 312.538 350.818 305.429 353.577 300.744C356.335 296.059 358.94 291.66 359.364 290.968C359.789 290.276 362.837 289.241 366.137 288.667C416.035 279.994 442.651 233.055 423.609 187.314L420.43 179.677L423.186 177.451C430.949 171.183 442.899 163.129 449.018 160.042C456.833 156.098 468.122 152.862 474.354 152.781L478.57 152.726L474.249 158.976ZM302.842 165.28C309.416 167.52 315.063 172.815 318.651 180.102C321.302 185.487 321.748 187.505 321.748 194.099C321.748 206.44 316.701 215.615 306.637 221.565C302.714 223.885 301.046 224.226 293.637 224.226C286.194 224.226 284.563 223.889 280.524 221.514C270.226 215.46 265.194 206.468 265.253 194.226C265.285 187.628 265.77 185.225 268.02 180.512C274.46 167.024 289.129 160.608 302.842 165.28ZM150.637 196.046C153.679 197.095 154.108 197.645 153.912 200.24C152.93 213.275 153.509 224.782 155.541 232.602C156.737 237.209 158.352 242.208 159.129 243.711C160.45 246.265 160.366 246.608 157.839 248.97C147.302 258.825 131.222 257.617 120.774 246.185C114.269 239.068 112.238 233.088 112.85 222.853C113.847 206.172 125.23 194.65 140.583 194.782C144.188 194.813 148.712 195.382 150.637 196.046ZM251.934 326.122C256.946 329.789 268.769 335.136 275.637 336.843C282.989 338.669 301.562 338.446 308.636 336.445C311.66 335.59 314.337 335.092 314.584 335.34C315.375 336.131 312.665 354.845 310.038 366.726C303.001 398.558 286.988 433.685 269.259 456.188L266.137 460.15L264.999 433.688C262.835 383.398 256.806 350.855 244.718 324.234L241.543 317.243L244.84 320.293C246.653 321.971 249.846 324.594 251.934 326.122ZM221.273 323.368C232.355 342.278 240.758 376.86 243.594 415.226C244.79 431.402 244.889 473.336 243.745 479.226L242.969 483.226L242.201 478.226C234.324 426.875 210.929 384.204 179.051 363.038L173.753 359.52L178.445 356.001C188.429 348.512 196.191 339.179 202.794 326.726C205.801 321.053 206.678 320.147 209.688 319.608C217.639 318.182 218.374 318.42 221.273 323.368Z" fill="#FEC265"/>
</svg>