<svg width="452" height="454" viewBox="0 0 452 454" fill="#FEC265" xmlns="http://www.w3.org/2000/svg">
<path fill-rule="evenodd" clip-rule="evenodd" d="M243.381 2.23714C241.428 3.77414 235.589 14.5651 224.175 37.7361C211.24 63.9941 207.315 71.1361 205.596 71.5411C204.398 71.8241 187.667 74.3071 168.417 77.0591C131.697 82.3091 130.008 82.7621 127.126 88.1261C126.377 89.5201 126.018 92.4211 126.272 95.0301C126.701 99.4431 127.238 100.044 153.961 126.073L181.212 152.616L175.058 188.573C171.673 208.349 168.906 225.586 168.91 226.876C168.926 232.326 175.155 238.038 181.068 238.025C182.36 238.022 198.438 230.147 216.797 220.525C235.156 210.903 250.304 203.03 250.459 203.03C250.614 203.03 265.293 210.753 283.079 220.191C311.104 235.064 316.042 237.365 320.101 237.441C323.972 237.515 325.31 237.028 327.803 234.639C329.462 233.05 331.106 230.446 331.456 228.853C331.842 227.093 329.624 211.586 325.797 189.309L319.503 152.661L346.134 126.596C360.781 112.26 373.25 99.5471 373.841 98.3461C376.213 93.5301 373.745 85.6141 369.096 83.1261C368.036 82.5591 351.024 79.7841 331.293 76.9591C311.561 74.1351 294.829 71.6501 294.111 71.4371C293.392 71.2241 285.47 56.0541 276.506 37.7261C265.181 14.5731 259.359 3.73614 257.427 2.21714C253.659 -0.746862 247.163 -0.737861 243.381 2.23714ZM270.089 42.9761C279.497 62.1961 287.876 78.1841 288.71 78.5041C289.545 78.8241 306.875 81.5201 327.223 84.4951C365.607 90.1061 368.327 90.8211 366.339 94.7811C365.832 95.7911 353.492 108.235 338.917 122.434C324.342 136.634 312.091 148.817 311.692 149.508C311.293 150.199 313.88 167.772 317.442 188.558C321.003 209.345 323.917 226.714 323.917 227.156C323.917 227.598 322.994 228.453 321.867 229.057C320.109 229.997 314.904 227.574 285.426 212.092C266.511 202.158 250.765 194.03 250.434 194.03C250.104 194.03 234.321 202.176 215.361 212.131C195.419 222.603 180.252 229.989 179.38 229.654C178.55 229.336 177.632 228.45 177.338 227.686C176.918 226.59 186.941 164.843 189.506 152.728C190.012 150.334 189.393 149.241 185.258 145.224C151.185 112.132 133.92 94.8321 133.932 93.7931C133.941 93.0981 134.303 91.9701 134.737 91.2871C135.23 90.5101 149.643 87.9821 173.081 84.5591C193.735 81.5431 211.282 78.8271 212.073 78.5241C212.864 78.2201 221.216 62.2351 230.633 43.0011C246.633 10.3221 247.927 8.03014 250.37 8.03014C252.814 8.03014 254.105 10.3191 270.089 42.9761ZM414.657 219.692C412.589 220.55 394.141 234.458 373.661 250.598L336.425 279.945L333.421 277.099C326.377 270.426 327.546 270.589 281.917 269.935C235.855 269.275 232.667 268.933 208.917 262.085C188.274 256.133 184.76 255.567 168.917 255.648C157.414 255.706 152.806 256.161 146.621 257.847C130.109 262.347 118.456 269.895 106.982 283.521C101.021 290.6 97.6841 293.408 86.6671 300.619C76.0341 307.577 73.1871 309.028 71.9501 308.117C68.1041 305.285 60.0961 302.049 56.9101 302.04C50.5941 302.022 47.0751 303.756 26.3361 317.106C8.70511 328.456 5.47611 330.926 3.20111 334.808C0.155109 340.006 -0.891891 348.087 0.823109 353.168C1.44711 355.017 15.1311 376.998 31.2321 402.014C65.1451 454.705 64.1061 453.53 76.7931 453.53H84.4971L101.734 442.53C111.214 436.48 121.096 429.937 123.694 427.99C133.739 420.46 136.122 409.371 130.018 398.555C128.24 395.405 126.928 392.705 127.101 392.554C128.088 391.699 153.504 376.771 157.084 374.945C160.905 372.995 162.415 372.823 171.387 373.313C177.543 373.65 189.914 375.653 203.417 378.501C263.464 391.165 277.157 391.816 298.301 383.014C308.104 378.933 317.241 372.724 332.861 359.53C345.852 348.557 347.617 346.13 344.717 343.23C344.057 342.57 342.967 342.03 342.295 342.03C341.623 342.03 335.525 346.801 328.745 352.632C293.388 383.04 279.223 386.141 225.917 375.14C217.942 373.494 206.017 371.025 199.417 369.654C182.103 366.056 171.791 364.741 164.518 365.204C157.359 365.66 153.103 367.612 134.009 379.194C127.735 383 122.284 385.758 121.895 385.322C120.288 383.518 77.9191 316.967 77.9401 316.279C77.9531 315.867 83.8431 311.753 91.0281 307.137C101.897 300.156 105.347 297.297 111.549 290.137C120.968 279.264 126.602 274.61 135.417 270.42C145.31 265.718 152.776 263.953 165.417 263.329C178.85 262.665 186.353 263.768 205.036 269.151C230.882 276.598 235.559 277.136 278.917 277.642C300.092 277.889 318.889 278.324 320.688 278.61C322.488 278.895 325.496 280.477 327.373 282.126C334.704 288.562 335.764 299.718 329.701 306.623C323.365 313.84 326.576 313.475 264.525 314.03C213.449 314.487 208.542 314.676 207.568 316.221C206.75 317.518 206.936 318.394 208.364 319.971C210.2 322 210.997 322.03 263.023 322.03C297.243 322.03 317.601 321.648 320.884 320.944C328.177 319.38 334.654 314.595 338.289 308.086C340.842 303.514 341.319 301.594 341.271 296.086C341.239 292.48 341.034 288.925 340.815 288.186C340.574 287.374 355.382 275.046 378.219 257.044C419.323 224.645 420.03 224.217 429.261 226.197C435.875 227.616 442.376 233.934 443.64 240.174C444.679 245.299 443.666 251.957 441.299 255.57C440.373 256.983 428.235 267.822 414.325 279.657C400.416 291.491 388.845 301.704 388.612 302.352C387.876 304.395 389.899 307.03 392.202 307.028C393.639 307.027 403.428 299.33 420.076 285.112C450.555 259.081 451.417 257.978 451.417 245.03C451.417 237.573 451.082 235.96 448.687 231.885C445.517 226.493 441.067 222.473 435.417 219.897C430.428 217.623 419.897 217.519 414.657 219.692ZM365.273 321.448C358.593 327.185 352.835 332.354 352.476 332.934C351.429 334.629 353.804 338.03 356.034 338.03C357.19 338.03 363.509 333.384 370.549 327.358C381.195 318.246 382.973 316.309 382.717 314.108C382.494 312.191 381.776 311.464 379.917 311.273C378 311.076 374.583 313.45 365.273 321.448ZM83.3461 407.601C85.5101 409.766 85.3141 413.633 82.9171 416.03C80.6111 418.336 79.6201 418.469 76.6011 416.88C73.9031 415.46 72.9521 414.094 72.9321 411.609C72.8951 406.868 79.9121 404.167 83.3461 407.601Z" fill="#FEC265"/>
</svg>