<svg width="375" height="427" viewBox="0 0 375 427" fill="none" xmlns="http://www.w3.org/2000/svg">
<path fill-rule="evenodd" clip-rule="evenodd" d="M151.431 1.34947C145.729 3.49076 140.576 7.54621 137.037 12.6793C130.458 22.2201 130.8 14.0091 130.8 162.321C130.8 235.891 130.613 296.086 130.385 296.086C130.157 296.086 126.2 293.587 121.592 290.534C103.401 278.479 69.6744 262.313 51.8996 257.128C40.3035 253.746 28.3909 254.824 18.4678 260.152C11.1312 264.092 1.81844 274.724 0.336486 280.851C-1.1312 286.924 -0.185379 288.038 54.9006 345.062C85.8228 377.074 111.098 402.419 115.013 405.344C129.054 415.833 148.309 423.821 165.229 426.177C170.5 426.911 193.99 427.152 236.314 426.908C298.699 426.549 299.628 426.514 307.132 424.266C322.314 419.72 334.67 412.371 346 401.149C358.637 388.632 367.748 372.909 372.383 355.622C374.523 347.64 374.53 347.366 374.849 261.45C375.164 176.344 375.144 175.215 373.2 169.747C370.585 162.391 364.884 155.764 358.192 152.305C353.462 149.859 351.656 149.497 344.205 149.497C337.074 149.497 334.871 149.9 330.97 151.922C324.921 155.055 319.409 160.909 316.69 167.089L314.527 172.002L313.983 166.458C312.922 155.64 306.181 145.972 296.348 141.172C288.486 137.333 277.927 137.384 270.342 141.297C263.682 144.735 257.01 152.303 254.568 159.194L252.765 164.284L252.128 160.893C250.699 153.282 242.852 144.42 233.938 140.349C228.293 137.77 216.24 137.948 210.482 140.695C204.431 143.582 197.925 150.122 195.036 156.227L192.638 161.29L192.376 91.8552L192.113 22.4202L189.551 17.3091C186.298 10.8192 178.661 3.5568 172.926 1.49955C167.534 -0.434616 156.389 -0.51166 151.431 1.34947Z" fill="#FEC265"/>
<rect x="188" y="161" width="24" height="52" rx="12" fill="#324561"/>
<rect x="252" y="164" width="24" height="49" rx="12" fill="#324561"/>
<rect x="316" y="168" width="24" height="45" rx="12" fill="#324561"/>
</svg>
