<svg width="454" height="404" viewBox="0 0 454 404" fill="none" xmlns="http://www.w3.org/2000/svg">
<path fill-rule="evenodd" clip-rule="evenodd" d="M320.225 0.762298C310.165 3.2113 302.293 12.2373 301.048 22.7503C299.294 37.5563 313.556 51.4933 328.38 49.4613C342.28 47.5563 352.588 33.7423 349.803 20.7533C349.21 17.9893 348.079 14.4783 347.29 12.9523C344.888 8.3083 338.212 3.0493 332.603 1.3833C326.991 -0.282704 324.941 -0.385702 320.225 0.762298ZM332.663 12.6543C341.944 17.6323 341.964 32.5503 332.696 37.3423C323.191 42.2573 311.635 35.8313 311.48 25.5443C311.307 14.1223 322.594 7.2543 332.663 12.6543ZM162.046 16.0163C158.993 17.4923 157.377 21.7833 158.632 25.0823C159.785 28.1153 162.501 29.8273 166.159 29.8273C172.456 29.8273 175.171 20.8963 170.09 16.9003C167.197 14.6243 165.346 14.4203 162.046 16.0163ZM391.899 27.1413C388.823 30.4163 389.027 35.1333 392.36 37.7543C397.709 41.9623 404.125 39.0023 404.125 32.3273C404.125 25.5343 396.463 22.2843 391.899 27.1413ZM79.4982 72.3823C66.9762 75.4173 55.8532 83.8673 46.9882 97.0773C44.4972 100.79 42.2622 103.827 42.0212 103.827C41.7802 103.827 38.7002 101.769 35.1762 99.2553C31.1042 96.3493 27.9502 94.8003 26.5252 95.0053C23.4382 95.4483 -0.317777 129.247 0.00322311 132.739C0.181223 134.667 17.2482 148.151 85.2252 200.065C131.975 235.768 171.267 265.748 172.54 266.688C174.847 268.391 174.756 268.465 144.89 289.212L114.926 310.028L101.708 331.892C86.6562 356.791 86.3482 357.948 94.2552 359.939C99.7652 361.326 103.732 365.612 103.71 370.154C103.701 371.899 101.669 378.913 99.1942 385.74C96.7062 392.601 94.9542 398.974 95.2772 399.991C96.1822 402.842 99.3152 404.114 101.975 402.71C103.213 402.057 131.556 380.666 164.961 355.175C198.366 329.684 226.166 308.827 226.739 308.827C227.311 308.827 255.105 329.684 288.502 355.176C321.9 380.668 350.237 402.058 351.475 402.711C354.136 404.114 357.268 402.842 358.173 399.991C358.496 398.974 356.744 392.601 354.256 385.74C351.781 378.913 349.749 371.83 349.74 370C349.721 365.717 353.913 361.392 359.557 359.872C367.018 357.863 366.651 356.554 351.703 331.829L338.447 309.901L308.531 289.142C278.75 268.477 278.624 268.376 280.92 266.68C282.188 265.744 321.475 235.775 368.225 200.083C436.592 147.888 453.268 134.713 453.447 132.758C453.763 129.289 430.028 95.4513 426.969 95.0103C425.598 94.8133 422.361 96.4133 418.371 99.2603C414.851 101.772 411.751 103.827 411.481 103.827C411.212 103.827 408.953 100.79 406.462 97.0773C394.286 78.9323 377.57 69.7583 359.225 71.1533C344.429 72.2773 347.095 70.6883 270.031 124.327C247.116 140.277 227.846 153.458 227.21 153.619C226.575 153.779 201.343 136.735 171.14 115.744C140.937 94.7533 113.975 76.5683 111.225 75.3333C101.109 70.7903 90.2352 69.7793 79.4982 72.3823ZM105.748 83.9323C108.664 85.1873 136.254 103.702 167.06 125.077C197.866 146.453 223.893 164.381 224.898 164.919C226.139 165.584 227.435 165.517 228.94 164.712C230.158 164.06 255.995 146.262 286.355 125.16C316.716 104.059 344.182 85.5713 347.391 84.0763C352.421 81.7333 354.466 81.3663 362.225 81.4103C369.029 81.4493 372.586 81.9973 376.804 83.6533C382.143 85.7493 390.725 92.0333 390.725 93.8473C390.725 94.3223 383.638 99.6123 374.975 105.603C366.312 111.594 329.653 137.045 293.509 162.161C257.365 187.277 227.333 207.827 226.771 207.827C225.795 207.827 66.7792 97.9373 63.7812 95.1913C62.5352 94.0493 62.6712 93.5113 64.7812 91.2523C73.7752 81.6253 92.5762 78.2663 105.748 83.9323ZM140.481 161.06C196.62 200.097 225.049 219.293 226.725 219.296C228.408 219.298 256.663 200.218 313.173 160.919L397.121 102.539L399.924 105.896C402.155 108.568 402.472 109.501 401.476 110.463C398.188 113.643 228.032 231.181 226.725 231.176C225.431 231.17 55.3172 113.663 52.0072 110.488C51.0562 109.576 51.3462 108.608 53.3292 106.073C54.7272 104.288 56.0652 102.827 56.3032 102.827C56.5422 102.827 94.4212 129.032 140.481 161.06ZM62.8892 130.656C81.7742 143.762 134.35 180.28 179.725 211.809C225.1 243.337 277.592 279.752 296.373 292.73L330.522 316.327L341.126 333.729L351.731 351.13L347.592 354.673C340.297 360.917 337.996 369.674 341.236 378.857C342.067 381.212 342.628 383.257 342.483 383.402C342.338 383.547 318.371 365.449 289.222 343.185C260.074 320.921 230.825 298.585 224.225 293.551C217.625 288.517 167.45 250.246 112.725 208.505C58.0002 166.764 12.8472 132.261 12.3862 131.831C11.7792 131.265 27.1992 107.219 28.3892 106.875C28.4792 106.848 44.0042 117.55 62.8892 130.656ZM433.595 119.03C441.838 130.954 441.934 131.162 439.905 132.732C438.772 133.609 400.227 163.056 354.248 198.17C296.884 241.978 270.151 261.821 269.057 261.401C265.421 260.006 235.641 238.518 236.4 237.837C236.854 237.429 276.375 209.958 324.225 176.788C372.075 143.619 414.15 114.339 417.725 111.721C421.3 109.103 424.45 106.952 424.725 106.941C425 106.931 428.991 112.371 433.595 119.03ZM426.18 214.282C424.83 215.632 423.725 217.902 423.725 219.327C423.725 222.813 427.889 226.827 431.505 226.827C438.075 226.827 441.227 217.94 436.09 213.9C432.595 211.15 429.179 211.282 426.18 214.282ZM57.1802 219.282C55.8302 220.632 54.7252 222.902 54.7252 224.327C54.7252 227.661 58.8912 231.827 62.2252 231.827C65.5592 231.827 69.7252 227.661 69.7252 224.327C69.7252 220.993 65.5592 216.827 62.2252 216.827C60.8002 216.827 58.5302 217.932 57.1802 219.282ZM348.114 263.169C342.733 267.797 345.728 275.827 352.836 275.827C359.421 275.827 362.321 267.015 357.09 262.9C353.679 260.217 351.469 260.283 348.114 263.169ZM33.2252 271.707C24.0862 274.12 15.1622 282.161 12.3002 290.561C9.95522 297.444 10.2722 306.316 13.0802 312.327C16.4882 319.626 20.0362 323.327 26.9252 326.769C45.8862 336.244 67.8012 323.742 69.4452 302.513C70.6832 286.515 58.2082 272.302 42.0322 271.281C38.8382 271.079 34.8752 271.271 33.2252 271.707ZM201.526 288.607C210.491 295.436 217.691 301.423 217.526 301.912C217.186 302.915 111.396 383.831 110.975 383.41C110.826 383.261 111.383 381.212 112.214 378.857C115.454 369.676 113.153 360.917 105.861 354.676L101.726 351.136L111.316 335.231C116.59 326.484 121.877 318.336 123.065 317.124C127.198 312.908 183.014 274.887 184.116 275.537C184.726 275.897 192.56 281.779 201.526 288.607ZM48.8272 283.417C56.2982 287.173 60.7402 296.733 58.7302 304.731C53.9192 323.873 27.8652 324.931 21.6942 306.234C16.5012 290.497 33.8642 275.895 48.8272 283.417ZM413.725 320.958C405.332 323.448 399.725 330.963 399.725 339.722C399.725 345.809 401.02 349.436 404.539 353.203C417.671 367.263 440.335 356.938 438.49 337.735C437.355 325.922 425.063 317.595 413.725 320.958ZM425.203 333.077C432.829 339.703 425.697 351.953 416.064 348.774C409.582 346.635 407.764 338.635 412.648 333.75C416.335 330.063 421.421 329.79 425.203 333.077ZM45.0822 379.828C42.5582 380.835 39.7252 384.583 39.7252 386.915C39.7252 387.818 40.6582 389.743 41.7982 391.192C45.9132 396.423 54.7252 393.523 54.7252 386.938C54.7252 381.742 49.6542 378.003 45.0822 379.828ZM241.089 384.975C238.957 386.029 236.725 389.745 236.725 392.239C236.725 392.964 237.658 394.743 238.798 396.192C242.913 401.423 251.725 398.523 251.725 391.938C251.725 386.444 245.87 382.611 241.089 384.975Z" fill="#FEC265"/>
</svg>
