<svg width="423" height="498" viewBox="0 0 423 498" fill="none" xmlns="http://www.w3.org/2000/svg">
<path fill-rule="evenodd" clip-rule="evenodd" d="M204.847 0.875039C198.226 2.27504 15.1734 94.243 10.3684 98.584C5.55044 102.937 1.75644 109.972 0.41644 117.036C-0.75256 123.2 0.684442 160.633 2.92544 182.398C11.0904 261.69 37.1414 334.789 77.9084 392.796C100.6 425.084 131.702 455.992 161.942 476.304C179.978 488.418 201.724 497.898 211.479 497.898C217.57 497.898 226.53 495.042 237.942 489.461C280.65 468.577 328.694 420.619 360.691 366.933C400.362 300.37 422.477 217.817 422.85 134.898C422.956 111.358 422.355 108.976 414.088 100.181C409.977 95.806 401.494 91.36 314.768 48.12C212.457 -2.89096 215.821 -1.44496 204.847 0.875039ZM216.964 159.475C222.985 162.333 223.442 164.682 223.442 192.799V217.898H248.541C269.326 217.898 274.211 218.169 276.964 219.475C280.406 221.109 283.442 225.993 283.442 229.898C283.442 233.803 280.406 238.687 276.964 240.321C274.211 241.627 269.326 241.898 248.541 241.898H223.442V266.997C223.442 295.114 222.985 297.463 216.964 300.321C212.77 302.311 210.114 302.311 205.92 300.321C199.899 297.463 199.442 295.114 199.442 266.997V241.898H174.343C153.558 241.898 148.673 241.627 145.92 240.321C142.478 238.687 139.442 233.803 139.442 229.898C139.442 225.993 142.478 221.109 145.92 219.475C148.673 218.169 153.558 217.898 174.343 217.898H199.442V192.799C199.442 164.852 199.908 162.399 205.763 159.511C209.822 157.51 212.801 157.5 216.964 159.475Z" fill="#FEC265"/>
</svg>
